<?xml version="1.0" encoding="UTF-8" standalone="no"?>
<!DOCTYPE svg PUBLIC "-//W3C//DTD SVG 1.1//EN"
 "http://www.w3.org/Graphics/SVG/1.1/DTD/svg11.dtd">
<!-- Generated by graphviz version 9.0.0 (20230911.1827)
 -->
<!-- Title: G Pages: 1 -->
<svg width="1915pt" height="509pt"
 viewBox="0.00 0.00 1915.20 508.95" xmlns="http://www.w3.org/2000/svg" xmlns:xlink="http://www.w3.org/1999/xlink">
<g id="graph0" class="graph" transform="scale(1 1) rotate(0) translate(21.6 487.35)">
<title>G</title>
<polygon fill="#111111" stroke="none" points="-21.6,21.6 -21.6,-487.35 1893.6,-487.35 1893.6,21.6 -21.6,21.6"/>
<!-- app.js -->
<g id="node1" class="node">
<title>app.js</title>
<path fill="none" stroke="#c6c5fe" d="M81.08,-166.75C81.08,-166.75 42.92,-166.75 42.92,-166.75 38.96,-166.75 35,-162.79 35,-158.83 35,-158.83 35,-150.92 35,-150.92 35,-146.96 38.96,-143 42.92,-143 42.92,-143 81.08,-143 81.08,-143 85.04,-143 89,-146.96 89,-150.92 89,-150.92 89,-158.83 89,-158.83 89,-162.79 85.04,-166.75 81.08,-166.75"/>
<text text-anchor="middle" x="62" y="-149.45" font-family="Arial" font-size="14.00" fill="#c6c5fe">app.js</text>
</g>
<!-- config/router.js -->
<g id="node2" class="node">
<title>config/router.js</title>
<path fill="none" stroke="#c6c5fe" d="M255.83,-187.75C255.83,-187.75 167.92,-187.75 167.92,-187.75 163.96,-187.75 160,-183.79 160,-179.83 160,-179.83 160,-171.92 160,-171.92 160,-167.96 163.96,-164 167.92,-164 167.92,-164 255.83,-164 255.83,-164 259.79,-164 263.75,-167.96 263.75,-171.92 263.75,-171.92 263.75,-179.83 263.75,-179.83 263.75,-183.79 259.79,-187.75 255.83,-187.75"/>
<text text-anchor="middle" x="211.88" y="-170.45" font-family="Arial" font-size="14.00" fill="#c6c5fe">config/router.js</text>
</g>
<!-- app.js&#45;&gt;config/router.js -->
<g id="edge1" class="edge">
<title>app.js&#45;&gt;config/router.js</title>
<path fill="none" stroke="#757575" d="M89.44,-158.63C105.84,-160.96 127.65,-164.06 148.26,-166.98"/>
<polygon fill="#757575" stroke="#757575" points="147.65,-170.43 158.04,-168.37 148.63,-163.5 147.65,-170.43"/>
</g>
<!-- store.js -->
<g id="node3" class="node">
<title>store.js</title>
<path fill="none" stroke="#c6c5fe" d="M233.71,-145.75C233.71,-145.75 190.04,-145.75 190.04,-145.75 186.08,-145.75 182.12,-141.79 182.12,-137.83 182.12,-137.83 182.12,-129.92 182.12,-129.92 182.12,-125.96 186.08,-122 190.04,-122 190.04,-122 233.71,-122 233.71,-122 237.67,-122 241.62,-125.96 241.62,-129.92 241.62,-129.92 241.62,-137.83 241.62,-137.83 241.62,-141.79 237.67,-145.75 233.71,-145.75"/>
<text text-anchor="middle" x="211.88" y="-128.45" font-family="Arial" font-size="14.00" fill="#c6c5fe">store.js</text>
</g>
<!-- app.js&#45;&gt;store.js -->
<g id="edge2" class="edge">
<title>app.js&#45;&gt;store.js</title>
<path fill="none" stroke="#757575" d="M89.44,-151.12C111.91,-147.93 144.55,-143.29 170.33,-139.63"/>
<polygon fill="#757575" stroke="#757575" points="170.72,-143.11 180.13,-138.24 169.74,-136.18 170.72,-143.11"/>
</g>
<!-- screens/ListScreen.js -->
<g id="node12" class="node">
<title>screens/ListScreen.js</title>
<path fill="none" stroke="#c6c5fe" d="M453.33,-127.75C453.33,-127.75 324.92,-127.75 324.92,-127.75 320.96,-127.75 317,-123.79 317,-119.83 317,-119.83 317,-111.92 317,-111.92 317,-107.96 320.96,-104 324.92,-104 324.92,-104 453.33,-104 453.33,-104 457.29,-104 461.25,-107.96 461.25,-111.92 461.25,-111.92 461.25,-119.83 461.25,-119.83 461.25,-123.79 457.29,-127.75 453.33,-127.75"/>
<text text-anchor="middle" x="389.12" y="-110.45" font-family="Arial" font-size="14.00" fill="#c6c5fe">screens/ListScreen.js</text>
</g>
<!-- config/router.js&#45;&gt;screens/ListScreen.js -->
<g id="edge9" class="edge">
<title>config/router.js&#45;&gt;screens/ListScreen.js</title>
<path fill="none" stroke="#757575" d="M248.76,-163.59C275.49,-154.44 312.22,-141.86 341.27,-131.92"/>
<polygon fill="#757575" stroke="#757575" points="342.23,-135.29 350.55,-128.74 339.96,-128.67 342.23,-135.29"/>
</g>
<!-- screens/RecorderScreen.js -->
<g id="node13" class="node">
<title>screens/RecorderScreen.js</title>
<path fill="none" stroke="#c6c5fe" d="M470.58,-227.75C470.58,-227.75 307.67,-227.75 307.67,-227.75 303.71,-227.75 299.75,-223.79 299.75,-219.83 299.75,-219.83 299.75,-211.92 299.75,-211.92 299.75,-207.96 303.71,-204 307.67,-204 307.67,-204 470.58,-204 470.58,-204 474.54,-204 478.5,-207.96 478.5,-211.92 478.5,-211.92 478.5,-219.83 478.5,-219.83 478.5,-223.79 474.54,-227.75 470.58,-227.75"/>
<text text-anchor="middle" x="389.12" y="-210.45" font-family="Arial" font-size="14.00" fill="#c6c5fe">screens/RecorderScreen.js</text>
</g>
<!-- config/router.js&#45;&gt;screens/RecorderScreen.js -->
<g id="edge10" class="edge">
<title>config/router.js&#45;&gt;screens/RecorderScreen.js</title>
<path fill="none" stroke="#757575" d="M264.04,-187.55C282.53,-191.77 303.67,-196.6 323.19,-201.05"/>
<polygon fill="#757575" stroke="#757575" points="322.15,-204.41 332.68,-203.22 323.71,-197.58 322.15,-204.41"/>
</g>
<!-- screens/TimerScreen.js -->
<g id="node14" class="node">
<title>screens/TimerScreen.js</title>
<path fill="none" stroke="#c6c5fe" d="M460.46,-288.75C460.46,-288.75 317.79,-288.75 317.79,-288.75 313.83,-288.75 309.88,-284.79 309.88,-280.83 309.88,-280.83 309.88,-272.92 309.88,-272.92 309.88,-268.96 313.83,-265 317.79,-265 317.79,-265 460.46,-265 460.46,-265 464.42,-265 468.38,-268.96 468.38,-272.92 468.38,-272.92 468.38,-280.83 468.38,-280.83 468.38,-284.79 464.42,-288.75 460.46,-288.75"/>
<text text-anchor="middle" x="389.12" y="-271.45" font-family="Arial" font-size="14.00" fill="#c6c5fe">screens/TimerScreen.js</text>
</g>
<!-- config/router.js&#45;&gt;screens/TimerScreen.js -->
<g id="edge11" class="edge">
<title>config/router.js&#45;&gt;screens/TimerScreen.js</title>
<path fill="none" stroke="#757575" d="M228.3,-188.04C245.23,-201.07 273.5,-221.89 299.75,-236.88 314.58,-245.34 331.53,-253.37 346.58,-259.99"/>
<polygon fill="#757575" stroke="#757575" points="345.2,-263.2 355.77,-263.94 347.97,-256.77 345.2,-263.2"/>
</g>
<!-- redux/reducers/index.js -->
<g id="node18" class="node">
<title>redux/reducers/index.js</title>
<path fill="none" stroke="#c6c5fe" d="M458.96,-64.75C458.96,-64.75 319.29,-64.75 319.29,-64.75 315.33,-64.75 311.38,-60.79 311.38,-56.83 311.38,-56.83 311.38,-48.92 311.38,-48.92 311.38,-44.96 315.33,-41 319.29,-41 319.29,-41 458.96,-41 458.96,-41 462.92,-41 466.88,-44.96 466.88,-48.92 466.88,-48.92 466.88,-56.83 466.88,-56.83 466.88,-60.79 462.92,-64.75 458.96,-64.75"/>
<text text-anchor="middle" x="389.12" y="-47.45" font-family="Arial" font-size="14.00" fill="#c6c5fe">redux/reducers/index.js</text>
</g>
<!-- store.js&#45;&gt;redux/reducers/index.js -->
<g id="edge32" class="edge">
<title>store.js&#45;&gt;redux/reducers/index.js</title>
<path fill="none" stroke="#757575" d="M239.49,-121.57C269.3,-107.8 317.81,-85.37 351.26,-69.91"/>
<polygon fill="#757575" stroke="#757575" points="352.56,-73.17 360.17,-65.79 349.63,-66.81 352.56,-73.17"/>
</g>
<!-- components/IconButton/index.js -->
<g id="node4" class="node">
<title>components/IconButton/index.js</title>
<path fill="none" stroke="#c6c5fe" d="M1053.83,-404.75C1053.83,-404.75 861.67,-404.75 861.67,-404.75 857.71,-404.75 853.75,-400.79 853.75,-396.83 853.75,-396.83 853.75,-388.92 853.75,-388.92 853.75,-384.96 857.71,-381 861.67,-381 861.67,-381 1053.83,-381 1053.83,-381 1057.79,-381 1061.75,-384.96 1061.75,-388.92 1061.75,-388.92 1061.75,-396.83 1061.75,-396.83 1061.75,-400.79 1057.79,-404.75 1053.83,-404.75"/>
<text text-anchor="middle" x="957.75" y="-387.45" font-family="Arial" font-size="14.00" fill="#c6c5fe">components/IconButton/index.js</text>
</g>
<!-- components/IconButton/style.js -->
<g id="node5" class="node">
<title>components/IconButton/style.js</title>
<path fill="none" stroke="#cfffac" d="M1329.33,-423.75C1329.33,-423.75 1141.67,-423.75 1141.67,-423.75 1137.71,-423.75 1133.75,-419.79 1133.75,-415.83 1133.75,-415.83 1133.75,-407.92 1133.75,-407.92 1133.75,-403.96 1137.71,-400 1141.67,-400 1141.67,-400 1329.33,-400 1329.33,-400 1333.29,-400 1337.25,-403.96 1337.25,-407.92 1337.25,-407.92 1337.25,-415.83 1337.25,-415.83 1337.25,-419.79 1333.29,-423.75 1329.33,-423.75"/>
<text text-anchor="middle" x="1235.5" y="-406.45" font-family="Arial" font-size="14.00" fill="#cfffac">components/IconButton/style.js</text>
</g>
<!-- components/IconButton/index.js&#45;&gt;components/IconButton/style.js -->
<g id="edge3" class="edge">
<title>components/IconButton/index.js&#45;&gt;components/IconButton/style.js</title>
<path fill="none" stroke="#757575" d="M1062.21,-400C1081.85,-401.36 1102.48,-402.78 1122.37,-404.15"/>
<polygon fill="#757575" stroke="#757575" points="1121.93,-407.63 1132.15,-404.82 1122.41,-400.64 1121.93,-407.63"/>
</g>
<!-- themes/index.js -->
<g id="node6" class="node">
<title>themes/index.js</title>
<path fill="none" stroke="#c6c5fe" d="M1493.83,-345.75C1493.83,-345.75 1399.17,-345.75 1399.17,-345.75 1395.21,-345.75 1391.25,-341.79 1391.25,-337.83 1391.25,-337.83 1391.25,-329.92 1391.25,-329.92 1391.25,-325.96 1395.21,-322 1399.17,-322 1399.17,-322 1493.83,-322 1493.83,-322 1497.79,-322 1501.75,-325.96 1501.75,-329.92 1501.75,-329.92 1501.75,-337.83 1501.75,-337.83 1501.75,-341.79 1497.79,-345.75 1493.83,-345.75"/>
<text text-anchor="middle" x="1446.5" y="-328.45" font-family="Arial" font-size="14.00" fill="#c6c5fe">themes/index.js</text>
</g>
<!-- components/IconButton/index.js&#45;&gt;themes/index.js -->
<g id="edge4" class="edge">
<title>components/IconButton/index.js&#45;&gt;themes/index.js</title>
<path fill="none" stroke="#757575" d="M1062,-382.33C1142.1,-373.86 1255.86,-361.22 1355.25,-347.88 1363.24,-346.8 1371.63,-345.6 1379.93,-344.37"/>
<polygon fill="#757575" stroke="#757575" points="1380.28,-347.85 1389.65,-342.9 1379.24,-340.93 1380.28,-347.85"/>
</g>
<!-- themes/ApplicationStyles.js -->
<g id="node23" class="node">
<title>themes/ApplicationStyles.js</title>
<path fill="none" stroke="#c6c5fe" d="M1710.83,-405.75C1710.83,-405.75 1545.67,-405.75 1545.67,-405.75 1541.71,-405.75 1537.75,-401.79 1537.75,-397.83 1537.75,-397.83 1537.75,-389.92 1537.75,-389.92 1537.75,-385.96 1541.71,-382 1545.67,-382 1545.67,-382 1710.83,-382 1710.83,-382 1714.79,-382 1718.75,-385.96 1718.75,-389.92 1718.75,-389.92 1718.75,-397.83 1718.75,-397.83 1718.75,-401.79 1714.79,-405.75 1710.83,-405.75"/>
<text text-anchor="middle" x="1628.25" y="-388.45" font-family="Arial" font-size="14.00" fill="#c6c5fe">themes/ApplicationStyles.js</text>
</g>
<!-- themes/index.js&#45;&gt;themes/ApplicationStyles.js -->
<g id="edge34" class="edge">
<title>themes/index.js&#45;&gt;themes/ApplicationStyles.js</title>
<path fill="none" stroke="#757575" d="M1478.2,-346.12C1495.56,-352.87 1517.73,-361.21 1537.75,-367.88 1548.57,-371.48 1560.22,-375.07 1571.42,-378.38"/>
<polygon fill="#757575" stroke="#757575" points="1570.39,-381.73 1580.97,-381.17 1572.35,-375.01 1570.39,-381.73"/>
</g>
<!-- themes/Colors.js -->
<g id="node24" class="node">
<title>themes/Colors.js</title>
<path fill="none" stroke="#cfffac" d="M1864.08,-385.75C1864.08,-385.75 1762.67,-385.75 1762.67,-385.75 1758.71,-385.75 1754.75,-381.79 1754.75,-377.83 1754.75,-377.83 1754.75,-369.92 1754.75,-369.92 1754.75,-365.96 1758.71,-362 1762.67,-362 1762.67,-362 1864.08,-362 1864.08,-362 1868.04,-362 1872,-365.96 1872,-369.92 1872,-369.92 1872,-377.83 1872,-377.83 1872,-381.79 1868.04,-385.75 1864.08,-385.75"/>
<text text-anchor="middle" x="1813.38" y="-368.45" font-family="Arial" font-size="14.00" fill="#cfffac">themes/Colors.js</text>
</g>
<!-- themes/index.js&#45;&gt;themes/Colors.js -->
<g id="edge35" class="edge">
<title>themes/index.js&#45;&gt;themes/Colors.js</title>
<path fill="none" stroke="#757575" d="M1502.13,-339.86C1566.34,-346.9 1673.02,-358.6 1743.02,-366.27"/>
<polygon fill="#757575" stroke="#757575" points="1742.53,-369.74 1752.85,-367.35 1743.29,-362.78 1742.53,-369.74"/>
</g>
<!-- themes/Fonts.js -->
<g id="node25" class="node">
<title>themes/Fonts.js</title>
<path fill="none" stroke="#cfffac" d="M1676.33,-325.75C1676.33,-325.75 1580.17,-325.75 1580.17,-325.75 1576.21,-325.75 1572.25,-321.79 1572.25,-317.83 1572.25,-317.83 1572.25,-309.92 1572.25,-309.92 1572.25,-305.96 1576.21,-302 1580.17,-302 1580.17,-302 1676.33,-302 1676.33,-302 1680.29,-302 1684.25,-305.96 1684.25,-309.92 1684.25,-309.92 1684.25,-317.83 1684.25,-317.83 1684.25,-321.79 1680.29,-325.75 1676.33,-325.75"/>
<text text-anchor="middle" x="1628.25" y="-308.45" font-family="Arial" font-size="14.00" fill="#cfffac">themes/Fonts.js</text>
</g>
<!-- themes/index.js&#45;&gt;themes/Fonts.js -->
<g id="edge36" class="edge">
<title>themes/index.js&#45;&gt;themes/Fonts.js</title>
<path fill="none" stroke="#757575" d="M1501.92,-327.82C1520.4,-325.76 1541.27,-323.44 1560.6,-321.29"/>
<polygon fill="#757575" stroke="#757575" points="1560.72,-324.8 1570.27,-320.21 1559.94,-317.84 1560.72,-324.8"/>
</g>
<!-- themes/Metrics.js -->
<g id="node26" class="node">
<title>themes/Metrics.js</title>
<path fill="none" stroke="#cfffac" d="M1681.58,-283.75C1681.58,-283.75 1574.92,-283.75 1574.92,-283.75 1570.96,-283.75 1567,-279.79 1567,-275.83 1567,-275.83 1567,-267.92 1567,-267.92 1567,-263.96 1570.96,-260 1574.92,-260 1574.92,-260 1681.58,-260 1681.58,-260 1685.54,-260 1689.5,-263.96 1689.5,-267.92 1689.5,-267.92 1689.5,-275.83 1689.5,-275.83 1689.5,-279.79 1685.54,-283.75 1681.58,-283.75"/>
<text text-anchor="middle" x="1628.25" y="-266.45" font-family="Arial" font-size="14.00" fill="#cfffac">themes/Metrics.js</text>
</g>
<!-- themes/index.js&#45;&gt;themes/Metrics.js -->
<g id="edge37" class="edge">
<title>themes/index.js&#45;&gt;themes/Metrics.js</title>
<path fill="none" stroke="#757575" d="M1471.11,-321.6C1489.03,-312.68 1514.46,-300.81 1537.75,-292.88 1543.85,-290.8 1550.25,-288.85 1556.7,-287.05"/>
<polygon fill="#757575" stroke="#757575" points="1557.35,-290.5 1566.11,-284.54 1555.55,-283.74 1557.35,-290.5"/>
</g>
<!-- components/Input.js -->
<g id="node7" class="node">
<title>components/Input.js</title>
<path fill="none" stroke="#cfffac" d="M717.96,-267.75C717.96,-267.75 596.29,-267.75 596.29,-267.75 592.33,-267.75 588.38,-263.79 588.38,-259.83 588.38,-259.83 588.38,-251.92 588.38,-251.92 588.38,-247.96 592.33,-244 596.29,-244 596.29,-244 717.96,-244 717.96,-244 721.92,-244 725.88,-247.96 725.88,-251.92 725.88,-251.92 725.88,-259.83 725.88,-259.83 725.88,-263.79 721.92,-267.75 717.96,-267.75"/>
<text text-anchor="middle" x="657.12" y="-250.45" font-family="Arial" font-size="14.00" fill="#cfffac">components/Input.js</text>
</g>
<!-- components/RecordingButton/index.js -->
<g id="node8" class="node">
<title>components/RecordingButton/index.js</title>
<path fill="none" stroke="#c6c5fe" d="M1071.83,-456.75C1071.83,-456.75 843.67,-456.75 843.67,-456.75 839.71,-456.75 835.75,-452.79 835.75,-448.83 835.75,-448.83 835.75,-440.92 835.75,-440.92 835.75,-436.96 839.71,-433 843.67,-433 843.67,-433 1071.83,-433 1071.83,-433 1075.79,-433 1079.75,-436.96 1079.75,-440.92 1079.75,-440.92 1079.75,-448.83 1079.75,-448.83 1079.75,-452.79 1075.79,-456.75 1071.83,-456.75"/>
<text text-anchor="middle" x="957.75" y="-439.45" font-family="Arial" font-size="14.00" fill="#c6c5fe">components/RecordingButton/index.js</text>
</g>
<!-- components/RecordingButton/style.js -->
<g id="node9" class="node">
<title>components/RecordingButton/style.js</title>
<path fill="none" stroke="#c6c5fe" d="M1347.33,-465.75C1347.33,-465.75 1123.67,-465.75 1123.67,-465.75 1119.71,-465.75 1115.75,-461.79 1115.75,-457.83 1115.75,-457.83 1115.75,-449.92 1115.75,-449.92 1115.75,-445.96 1119.71,-442 1123.67,-442 1123.67,-442 1347.33,-442 1347.33,-442 1351.29,-442 1355.25,-445.96 1355.25,-449.92 1355.25,-449.92 1355.25,-457.83 1355.25,-457.83 1355.25,-461.79 1351.29,-465.75 1347.33,-465.75"/>
<text text-anchor="middle" x="1235.5" y="-448.45" font-family="Arial" font-size="14.00" fill="#c6c5fe">components/RecordingButton/style.js</text>
</g>
<!-- components/RecordingButton/index.js&#45;&gt;components/RecordingButton/style.js -->
<g id="edge5" class="edge">
<title>components/RecordingButton/index.js&#45;&gt;components/RecordingButton/style.js</title>
<path fill="none" stroke="#757575" d="M1080.1,-448.84C1088.05,-449.1 1096.08,-449.36 1104.08,-449.62"/>
<polygon fill="#757575" stroke="#757575" points="1103.73,-453.11 1113.84,-449.94 1103.96,-446.11 1103.73,-453.11"/>
</g>
<!-- components/RecordingButton/style.js&#45;&gt;themes/index.js -->
<g id="edge6" class="edge">
<title>components/RecordingButton/style.js&#45;&gt;themes/index.js</title>
<path fill="none" stroke="#757575" d="M1335.76,-441.53C1342.54,-439.12 1349.11,-436.26 1355.25,-432.88 1388.82,-414.39 1416.56,-378.69 1432.07,-355.59"/>
<polygon fill="#757575" stroke="#757575" points="1434.98,-357.54 1437.49,-347.24 1429.11,-353.73 1434.98,-357.54"/>
</g>
<!-- components/index.js -->
<g id="node10" class="node">
<title>components/index.js</title>
<path fill="none" stroke="#c6c5fe" d="M719.08,-404.75C719.08,-404.75 595.17,-404.75 595.17,-404.75 591.21,-404.75 587.25,-400.79 587.25,-396.83 587.25,-396.83 587.25,-388.92 587.25,-388.92 587.25,-384.96 591.21,-381 595.17,-381 595.17,-381 719.08,-381 719.08,-381 723.04,-381 727,-384.96 727,-388.92 727,-388.92 727,-396.83 727,-396.83 727,-400.79 723.04,-404.75 719.08,-404.75"/>
<text text-anchor="middle" x="657.12" y="-387.45" font-family="Arial" font-size="14.00" fill="#c6c5fe">components/index.js</text>
</g>
<!-- components/index.js&#45;&gt;components/IconButton/index.js -->
<g id="edge7" class="edge">
<title>components/index.js&#45;&gt;components/IconButton/index.js</title>
<path fill="none" stroke="#757575" d="M727.39,-392.88C761.42,-392.88 803.32,-392.88 841.96,-392.88"/>
<polygon fill="#757575" stroke="#757575" points="841.79,-396.38 851.79,-392.88 841.79,-389.38 841.79,-396.38"/>
</g>
<!-- components/index.js&#45;&gt;components/RecordingButton/index.js -->
<g id="edge8" class="edge">
<title>components/index.js&#45;&gt;components/RecordingButton/index.js</title>
<path fill="none" stroke="#757575" d="M727.39,-404.94C771.32,-412.59 828.38,-422.52 874.59,-430.57"/>
<polygon fill="#757575" stroke="#757575" points="873.85,-433.99 884.3,-432.26 875.05,-427.1 873.85,-433.99"/>
</g>
<!-- config/index.js -->
<g id="node11" class="node">
<title>config/index.js</title>
<path fill="none" stroke="#cfffac" d="M1000.58,-23.75C1000.58,-23.75 914.92,-23.75 914.92,-23.75 910.96,-23.75 907,-19.79 907,-15.83 907,-15.83 907,-7.92 907,-7.92 907,-3.96 910.96,0 914.92,0 914.92,0 1000.58,0 1000.58,0 1004.54,0 1008.5,-3.96 1008.5,-7.92 1008.5,-7.92 1008.5,-15.83 1008.5,-15.83 1008.5,-19.79 1004.54,-23.75 1000.58,-23.75"/>
<text text-anchor="middle" x="957.75" y="-6.45" font-family="Arial" font-size="14.00" fill="#cfffac">config/index.js</text>
</g>
<!-- lib/AudioManager.js -->
<g id="node17" class="node">
<title>lib/AudioManager.js</title>
<path fill="none" stroke="#cfffac" d="M716.46,-187.75C716.46,-187.75 597.79,-187.75 597.79,-187.75 593.83,-187.75 589.88,-183.79 589.88,-179.83 589.88,-179.83 589.88,-171.92 589.88,-171.92 589.88,-167.96 593.83,-164 597.79,-164 597.79,-164 716.46,-164 716.46,-164 720.42,-164 724.38,-167.96 724.38,-171.92 724.38,-171.92 724.38,-179.83 724.38,-179.83 724.38,-183.79 720.42,-187.75 716.46,-187.75"/>
<text text-anchor="middle" x="657.12" y="-170.45" font-family="Arial" font-size="14.00" fill="#cfffac">lib/AudioManager.js</text>
</g>
<!-- screens/ListScreen.js&#45;&gt;lib/AudioManager.js -->
<g id="edge14" class="edge">
<title>screens/ListScreen.js&#45;&gt;lib/AudioManager.js</title>
<path fill="none" stroke="#757575" d="M431.64,-128.18C455.71,-135.07 486.67,-143.53 514.5,-149.88 535.16,-154.59 557.67,-159.03 578.53,-162.86"/>
<polygon fill="#757575" stroke="#757575" points="577.65,-166.26 588.11,-164.6 578.89,-159.37 577.65,-166.26"/>
</g>
<!-- redux/reducers/recorder.js -->
<g id="node19" class="node">
<title>redux/reducers/recorder.js</title>
<path fill="none" stroke="#c6c5fe" d="M735.58,-23.75C735.58,-23.75 578.67,-23.75 578.67,-23.75 574.71,-23.75 570.75,-19.79 570.75,-15.83 570.75,-15.83 570.75,-7.92 570.75,-7.92 570.75,-3.96 574.71,0 578.67,0 578.67,0 735.58,0 735.58,0 739.54,0 743.5,-3.96 743.5,-7.92 743.5,-7.92 743.5,-15.83 743.5,-15.83 743.5,-19.79 739.54,-23.75 735.58,-23.75"/>
<text text-anchor="middle" x="657.12" y="-6.45" font-family="Arial" font-size="14.00" fill="#c6c5fe">redux/reducers/recorder.js</text>
</g>
<!-- screens/ListScreen.js&#45;&gt;redux/reducers/recorder.js -->
<g id="edge15" class="edge">
<title>screens/ListScreen.js&#45;&gt;redux/reducers/recorder.js</title>
<path fill="none" stroke="#757575" d="M423.82,-103.67C441.12,-96.49 461.96,-86.37 478.5,-73.88 497.85,-59.26 493.2,-44.47 514.5,-32.88 528.11,-25.46 543.5,-20.41 558.98,-17.02"/>
<polygon fill="#757575" stroke="#757575" points="559.62,-20.46 568.77,-15.12 558.28,-13.59 559.62,-20.46"/>
</g>
<!-- screens/ScreenComponents/BottomPlayer.js -->
<g id="node20" class="node">
<title>screens/ScreenComponents/BottomPlayer.js</title>
<path fill="none" stroke="#c6c5fe" d="M791.83,-65.75C791.83,-65.75 522.42,-65.75 522.42,-65.75 518.46,-65.75 514.5,-61.79 514.5,-57.83 514.5,-57.83 514.5,-49.92 514.5,-49.92 514.5,-45.96 518.46,-42 522.42,-42 522.42,-42 791.83,-42 791.83,-42 795.79,-42 799.75,-45.96 799.75,-49.92 799.75,-49.92 799.75,-57.83 799.75,-57.83 799.75,-61.79 795.79,-65.75 791.83,-65.75"/>
<text text-anchor="middle" x="657.12" y="-48.45" font-family="Arial" font-size="14.00" fill="#c6c5fe">screens/ScreenComponents/BottomPlayer.js</text>
</g>
<!-- screens/ListScreen.js&#45;&gt;screens/ScreenComponents/BottomPlayer.js -->
<g id="edge16" class="edge">
<title>screens/ListScreen.js&#45;&gt;screens/ScreenComponents/BottomPlayer.js</title>
<path fill="none" stroke="#757575" d="M422.42,-103.54C447.27,-94.46 482.64,-82.43 514.5,-74.88 524.82,-72.43 535.64,-70.21 546.5,-68.22"/>
<polygon fill="#757575" stroke="#757575" points="547.08,-71.67 556.32,-66.49 545.86,-64.78 547.08,-71.67"/>
</g>
<!-- screens/ScreenComponents/ListItem.js -->
<g id="node21" class="node">
<title>screens/ScreenComponents/ListItem.js</title>
<path fill="none" stroke="#c6c5fe" d="M775.33,-107.75C775.33,-107.75 538.92,-107.75 538.92,-107.75 534.96,-107.75 531,-103.79 531,-99.83 531,-99.83 531,-91.92 531,-91.92 531,-87.96 534.96,-84 538.92,-84 538.92,-84 775.33,-84 775.33,-84 779.29,-84 783.25,-87.96 783.25,-91.92 783.25,-91.92 783.25,-99.83 783.25,-99.83 783.25,-103.79 779.29,-107.75 775.33,-107.75"/>
<text text-anchor="middle" x="657.12" y="-90.45" font-family="Arial" font-size="14.00" fill="#c6c5fe">screens/ScreenComponents/ListItem.js</text>
</g>
<!-- screens/ListScreen.js&#45;&gt;screens/ScreenComponents/ListItem.js -->
<g id="edge17" class="edge">
<title>screens/ListScreen.js&#45;&gt;screens/ScreenComponents/ListItem.js</title>
<path fill="none" stroke="#757575" d="M461.41,-110.52C479.37,-109.16 499.27,-107.67 519.28,-106.16"/>
<polygon fill="#757575" stroke="#757575" points="519.51,-109.66 529.22,-105.42 518.99,-102.68 519.51,-109.66"/>
</g>
<!-- screens/styles/ScreenStyle.js -->
<g id="node22" class="node">
<title>screens/styles/ScreenStyle.js</title>
<path fill="none" stroke="#c6c5fe" d="M1045.58,-188.75C1045.58,-188.75 869.92,-188.75 869.92,-188.75 865.96,-188.75 862,-184.79 862,-180.83 862,-180.83 862,-172.92 862,-172.92 862,-168.96 865.96,-165 869.92,-165 869.92,-165 1045.58,-165 1045.58,-165 1049.54,-165 1053.5,-168.96 1053.5,-172.92 1053.5,-172.92 1053.5,-180.83 1053.5,-180.83 1053.5,-184.79 1049.54,-188.75 1045.58,-188.75"/>
<text text-anchor="middle" x="957.75" y="-171.45" font-family="Arial" font-size="14.00" fill="#c6c5fe">screens/styles/ScreenStyle.js</text>
</g>
<!-- screens/ListScreen.js&#45;&gt;screens/styles/ScreenStyle.js -->
<g id="edge18" class="edge">
<title>screens/ListScreen.js&#45;&gt;screens/styles/ScreenStyle.js</title>
<path fill="none" stroke="#757575" d="M461.63,-121.72C543.46,-128.63 681.44,-140.96 799.75,-154.88 820.05,-157.26 841.78,-160.12 862.4,-162.96"/>
<polygon fill="#757575" stroke="#757575" points="861.84,-166.42 872.23,-164.33 862.81,-159.49 861.84,-166.42"/>
</g>
<!-- screens/RecorderScreen.js&#45;&gt;themes/index.js -->
<g id="edge24" class="edge">
<title>screens/RecorderScreen.js&#45;&gt;themes/index.js</title>
<path fill="none" stroke="#757575" d="M419.14,-228.11C436.56,-235.67 459.05,-245.83 478.5,-255.88 494.96,-264.37 496.77,-271.5 514.5,-276.88 676.54,-326.04 1195.18,-332.92 1379.62,-333.79"/>
<polygon fill="#757575" stroke="#757575" points="1379.5,-337.29 1389.51,-333.83 1379.52,-330.29 1379.5,-337.29"/>
</g>
<!-- screens/RecorderScreen.js&#45;&gt;components/Input.js -->
<g id="edge19" class="edge">
<title>screens/RecorderScreen.js&#45;&gt;components/Input.js</title>
<path fill="none" stroke="#757575" d="M472.1,-228.2C505.57,-233.23 544.11,-239.03 577.25,-244.01"/>
<polygon fill="#757575" stroke="#757575" points="576.36,-247.42 586.77,-245.45 577.4,-240.5 576.36,-247.42"/>
</g>
<!-- screens/RecorderScreen.js&#45;&gt;components/index.js -->
<g id="edge20" class="edge">
<title>screens/RecorderScreen.js&#45;&gt;components/index.js</title>
<path fill="none" stroke="#757575" d="M434.3,-228.18C449.92,-234.36 466.56,-243.29 478.5,-255.88 508.73,-287.72 482.45,-317.86 514.5,-347.88 531.49,-363.79 554.1,-374.08 576.25,-380.72"/>
<polygon fill="#757575" stroke="#757575" points="575.04,-384.02 585.61,-383.3 576.9,-377.27 575.04,-384.02"/>
</g>
<!-- screens/RecorderScreen.js&#45;&gt;lib/AudioManager.js -->
<g id="edge21" class="edge">
<title>screens/RecorderScreen.js&#45;&gt;lib/AudioManager.js</title>
<path fill="none" stroke="#757575" d="M472.1,-203.55C505.98,-198.45 545.06,-192.58 578.47,-187.55"/>
<polygon fill="#757575" stroke="#757575" points="578.7,-191.06 588.07,-186.11 577.66,-184.13 578.7,-191.06"/>
</g>
<!-- screens/RecorderScreen.js&#45;&gt;redux/reducers/recorder.js -->
<g id="edge22" class="edge">
<title>screens/RecorderScreen.js&#45;&gt;redux/reducers/recorder.js</title>
<path fill="none" stroke="#757575" d="M408.55,-203.74C428.41,-189.79 459.68,-165.14 478.5,-136.88 505.6,-96.16 476.85,-64.1 514.5,-32.88 527.37,-22.2 543.25,-15.69 559.68,-11.88"/>
<polygon fill="#757575" stroke="#757575" points="559.9,-15.41 569.04,-10.05 558.56,-8.54 559.9,-15.41"/>
</g>
<!-- screens/RecorderScreen.js&#45;&gt;screens/styles/ScreenStyle.js -->
<g id="edge23" class="edge">
<title>screens/RecorderScreen.js&#45;&gt;screens/styles/ScreenStyle.js</title>
<path fill="none" stroke="#757575" d="M478.96,-213.81C562.02,-211.4 689.46,-206.44 799.75,-196.88 818.74,-195.23 838.97,-193 858.38,-190.64"/>
<polygon fill="#757575" stroke="#757575" points="858.69,-194.12 868.19,-189.42 857.83,-187.18 858.69,-194.12"/>
</g>
<!-- screens/TimerScreen.js&#45;&gt;screens/styles/ScreenStyle.js -->
<g id="edge30" class="edge">
<title>screens/TimerScreen.js&#45;&gt;screens/styles/ScreenStyle.js</title>
<path fill="none" stroke="#757575" d="M465.14,-289.22C548.66,-300.16 686.75,-309.8 799.75,-276.88 853.5,-261.21 906.41,-220.95 934.99,-196.56"/>
<polygon fill="#757575" stroke="#757575" points="937,-199.45 942.25,-190.24 932.41,-194.17 937,-199.45"/>
</g>
<!-- helpers/renderIf.js -->
<g id="node15" class="node">
<title>helpers/renderIf.js</title>
<path fill="none" stroke="#cfffac" d="M116.08,-208.75C116.08,-208.75 7.92,-208.75 7.92,-208.75 3.96,-208.75 0,-204.79 0,-200.83 0,-200.83 0,-192.92 0,-192.92 0,-188.96 3.96,-185 7.92,-185 7.92,-185 116.08,-185 116.08,-185 120.04,-185 124,-188.96 124,-192.92 124,-192.92 124,-200.83 124,-200.83 124,-204.79 120.04,-208.75 116.08,-208.75"/>
<text text-anchor="middle" x="62" y="-191.45" font-family="Arial" font-size="14.00" fill="#cfffac">helpers/renderIf.js</text>
</g>
<!-- helpers/timeConverter.js -->
<g id="node16" class="node">
<title>helpers/timeConverter.js</title>
<path fill="none" stroke="#cfffac" d="M1030.96,-107.75C1030.96,-107.75 884.54,-107.75 884.54,-107.75 880.58,-107.75 876.62,-103.79 876.62,-99.83 876.62,-99.83 876.62,-91.92 876.62,-91.92 876.62,-87.96 880.58,-84 884.54,-84 884.54,-84 1030.96,-84 1030.96,-84 1034.92,-84 1038.88,-87.96 1038.88,-91.92 1038.88,-91.92 1038.88,-99.83 1038.88,-99.83 1038.88,-103.79 1034.92,-107.75 1030.96,-107.75"/>
<text text-anchor="middle" x="957.75" y="-90.45" font-family="Arial" font-size="14.00" fill="#cfffac">helpers/timeConverter.js</text>
</g>
<!-- redux/reducers/index.js&#45;&gt;redux/reducers/recorder.js -->
<g id="edge12" class="edge">
<title>redux/reducers/index.js&#45;&gt;redux/reducers/recorder.js</title>
<path fill="none" stroke="#757575" d="M466.07,-40.51C482.06,-37.95 498.83,-35.3 514.5,-32.88 529.42,-30.57 545.24,-28.17 560.69,-25.86"/>
<polygon fill="#757575" stroke="#757575" points="560.98,-29.36 570.35,-24.42 559.95,-22.44 560.98,-29.36"/>
</g>
<!-- redux/reducers/recorder.js&#45;&gt;config/index.js -->
<g id="edge13" class="edge">
<title>redux/reducers/recorder.js&#45;&gt;config/index.js</title>
<path fill="none" stroke="#757575" d="M743.7,-11.88C792.11,-11.88 851.53,-11.88 895.31,-11.88"/>
<polygon fill="#757575" stroke="#757575" points="895.14,-15.38 905.14,-11.88 895.13,-8.38 895.14,-15.38"/>
</g>
<!-- screens/ScreenComponents/BottomPlayer.js&#45;&gt;themes/index.js -->
<g id="edge27" class="edge">
<title>screens/ScreenComponents/BottomPlayer.js&#45;&gt;themes/index.js</title>
<path fill="none" stroke="#757575" d="M800.18,-45.53C883.14,-44.44 989.02,-49.63 1079.75,-74.88 1213.66,-112.13 1248.1,-134.34 1355.25,-222.88 1387.08,-249.18 1415.63,-288.13 1431.74,-312.21"/>
<polygon fill="#757575" stroke="#757575" points="1428.61,-313.83 1437.02,-320.27 1434.47,-309.99 1428.61,-313.83"/>
</g>
<!-- screens/ScreenComponents/BottomPlayer.js&#45;&gt;helpers/timeConverter.js -->
<g id="edge25" class="edge">
<title>screens/ScreenComponents/BottomPlayer.js&#45;&gt;helpers/timeConverter.js</title>
<path fill="none" stroke="#757575" d="M746.11,-66.25C783.61,-71.52 827.36,-77.68 865.24,-83"/>
<polygon fill="#757575" stroke="#757575" points="864.39,-86.42 874.78,-84.35 865.36,-79.49 864.39,-86.42"/>
</g>
<!-- screens/ScreenComponents/BottomPlayer.js&#45;&gt;screens/styles/ScreenStyle.js -->
<g id="edge26" class="edge">
<title>screens/ScreenComponents/BottomPlayer.js&#45;&gt;screens/styles/ScreenStyle.js</title>
<path fill="none" stroke="#757575" d="M780.54,-66.17C787.2,-68.63 793.66,-71.51 799.75,-74.88 821.27,-86.76 816.35,-101.78 835.75,-116.88 859.12,-135.06 888.89,-149.91 913.05,-160.28"/>
<polygon fill="#757575" stroke="#757575" points="911.39,-163.39 921.97,-164.01 914.09,-156.93 911.39,-163.39"/>
</g>
<!-- screens/ScreenComponents/ListItem.js&#45;&gt;helpers/timeConverter.js -->
<g id="edge28" class="edge">
<title>screens/ScreenComponents/ListItem.js&#45;&gt;helpers/timeConverter.js</title>
<path fill="none" stroke="#757575" d="M783.47,-95.88C810.86,-95.88 839.36,-95.88 865.14,-95.88"/>
<polygon fill="#757575" stroke="#757575" points="864.88,-99.38 874.88,-95.88 864.88,-92.38 864.88,-99.38"/>
</g>
<!-- screens/ScreenComponents/ListItem.js&#45;&gt;screens/styles/ScreenStyle.js -->
<g id="edge29" class="edge">
<title>screens/ScreenComponents/ListItem.js&#45;&gt;screens/styles/ScreenStyle.js</title>
<path fill="none" stroke="#757575" d="M737.64,-108.23C758.02,-112.01 779.82,-116.59 799.75,-121.88 839.83,-132.51 884.33,-148.51 915.7,-160.52"/>
<polygon fill="#757575" stroke="#757575" points="914.21,-163.7 924.8,-164.04 916.73,-157.17 914.21,-163.7"/>
</g>
<!-- screens/styles/ScreenStyle.js&#45;&gt;themes/index.js -->
<g id="edge31" class="edge">
<title>screens/styles/ScreenStyle.js&#45;&gt;themes/index.js</title>
<path fill="none" stroke="#757575" d="M996.94,-189.19C1084.45,-217.42 1299.35,-286.74 1396.46,-318.06"/>
<polygon fill="#757575" stroke="#757575" points="1395.11,-321.3 1405.71,-321.04 1397.26,-314.64 1395.11,-321.3"/>
</g>
<!-- themes/ApplicationStyles.js&#45;&gt;themes/Colors.js -->
<g id="edge33" class="edge">
<title>themes/ApplicationStyles.js&#45;&gt;themes/Colors.js</title>
<path fill="none" stroke="#757575" d="M1719.2,-384.05C1727.23,-383.17 1735.26,-382.3 1743.07,-381.44"/>
<polygon fill="#757575" stroke="#757575" points="1743.25,-384.94 1752.81,-380.38 1742.49,-377.99 1743.25,-384.94"/>
</g>
</g>
</svg>
